<svg xmlns="http://www.w3.org/2000/svg" xmlns:xlink="http://www.w3.org/1999/xlink" width="28.458" height="11.383" viewBox="0 0 28.458 11.383"><defs><style>.a,.b{fill:#fec465;}.b{clip-rule:evenodd;}.c{clip-path:url(#a);}.d{clip-path:url(#b);}.e{isolation:isolate;}.f{clip-path:url(#c);}.g{clip-path:url(#d);}.h{clip-path:url(#e);}</style><clipPath id="a"><path class="a" d="M11.383,5.692l-1,1L6.4,2.725V28.458H4.98V2.725L1,6.695l-1-1L5.692,0Z"/></clipPath><clipPath id="b"><path class="a" d="M0,0H1024.5V576.281H0Z"/></clipPath><clipPath id="c"><rect class="a" width="42" height="43" transform="translate(0.434 0.447)"/></clipPath><clipPath id="d"><path class="a" d="M0,0H11.383V28.458H0Z"/></clipPath><clipPath id="e"><path class="b" d="M42.688,42.688V0H0V42.688Z"/></clipPath></defs><g class="c" transform="translate(0 11.383) rotate(-90)"><g class="d" transform="translate(-103.873 -43.399)"><g class="e" transform="translate(88.221 35.573)"><g class="f"><g class="g" transform="translate(15.652 7.826)"><path class="a" d="M18.5,35.573V0H0V35.573Z" transform="translate(-3.557 -3.557)"/></g><g class="h" transform="translate(0 0.711)"><g class="g" transform="translate(15.652 7.115)"><path class="a" d="M49.8,49.8V0H0V49.8Z" transform="translate(-19.209 -10.672)"/></g></g></g></g></g></g></svg>